<svg width="35" height="35" viewBox="0 0 35 35" fill="none" xmlns="http://www.w3.org/2000/svg">
<path d="M33.7696 16.8574C33.6621 16.6676 33.5169 16.5017 33.3429 16.37C33.1689 16.2383 32.9698 16.1437 32.7579 16.0918C31.3292 15.7453 29.8442 15.6988 28.3965 15.9551C29.0118 13.248 28.6153 11.1289 28.2051 9.89844C28.0818 9.51128 27.8191 9.18369 27.468 8.9791C27.1169 8.77451 26.7024 8.70749 26.3048 8.79102C24.8943 9.11023 23.5608 9.70495 22.3809 10.541C21.5463 8.53958 20.2031 6.79104 18.4844 5.46875C18.2005 5.25576 17.855 5.14063 17.5001 5.14062C17.1451 5.14062 16.7997 5.25576 16.5157 5.46875C14.797 6.79104 13.4538 8.53958 12.6192 10.541C11.4393 9.70495 10.1058 9.11023 8.69538 8.79102C8.29771 8.70749 7.8832 8.77451 7.53212 8.9791C7.18104 9.18369 6.91837 9.51128 6.79499 9.89844C6.38483 11.1289 5.98835 13.248 6.60358 15.9551C5.15598 15.6988 3.67096 15.7453 2.24225 16.0918C2.03031 16.1437 1.83123 16.2383 1.65724 16.37C1.48325 16.5017 1.33804 16.6676 1.23053 16.8574C1.01375 17.2392 0.954871 17.6906 1.06647 18.1152C1.53132 19.7559 2.95319 22.9004 7.25983 25.3887C11.5665 27.877 15.4356 27.8906 17.5001 27.8906C19.5645 27.8906 23.4063 27.8906 27.7403 25.3887C32.0743 22.8867 33.4688 19.7559 33.9337 18.1152C34.0453 17.6906 33.9864 17.2392 33.7696 16.8574ZM26.5372 9.87109C26.6675 9.84061 26.8045 9.86024 26.921 9.92609C27.0375 9.99194 27.125 10.0992 27.1661 10.2266C27.5626 11.457 27.959 13.6445 27.1251 16.4609C27.1114 16.4883 27.1114 16.5156 27.0977 16.543C26.7699 17.6249 26.3108 18.6626 25.7305 19.6328C24.5608 21.6377 23.0039 23.3898 21.1505 24.7871L20.8087 25.0332C22.1895 23.2148 23.5157 20.4258 23.5157 16.4062C23.5295 14.7729 23.2802 13.1479 22.7774 11.5938C23.8937 10.7583 25.1755 10.171 26.5372 9.87109ZM17.1719 6.34375C17.2666 6.27275 17.3817 6.23438 17.5001 6.23438C17.6184 6.23438 17.7335 6.27275 17.8282 6.34375C19.209 7.38281 22.4219 10.418 22.4219 16.4062C22.4219 19.5645 21.5469 22.2715 19.838 24.4727C19.1813 25.3343 18.3922 26.0865 17.5001 26.7012C16.6079 26.0865 15.8189 25.3343 15.1622 24.4727C13.4532 22.2715 12.5782 19.5645 12.5782 16.4062C12.5782 10.418 15.7911 7.38281 17.1719 6.34375ZM7.83405 10.2266C7.87514 10.0992 7.96262 9.99194 8.07913 9.92609C8.19564 9.86024 8.33265 9.84061 8.46296 9.87109C9.82459 10.171 11.1064 10.7583 12.2227 11.5938C11.7199 13.1479 11.4706 14.7729 11.4844 16.4062C11.4844 20.4258 12.8106 23.2148 14.1915 25.0332L13.8497 24.7871C11.9963 23.3898 10.4394 21.6377 9.2696 19.6328C8.68906 18.6579 8.22993 17.6157 7.90241 16.5293L7.87507 16.4609C7.04108 13.6445 7.43757 11.457 7.83405 10.2266ZM2.11921 17.8145C2.10053 17.7459 2.09575 17.6743 2.10514 17.6039C2.11453 17.5334 2.13791 17.4656 2.17389 17.4043C2.24955 17.282 2.36565 17.1901 2.50202 17.1445C3.95886 16.8078 5.47281 16.8031 6.93171 17.1309C7.28632 18.1918 7.74904 19.2134 8.31257 20.1797C10.0762 23.2422 12.6465 25.4297 14.7247 26.6875C12.2838 26.4485 9.92371 25.6835 7.80671 24.4453C3.82819 22.1484 2.54303 19.3047 2.11921 17.8145ZM32.8809 17.8145C32.4571 19.3047 31.1719 22.1484 27.1934 24.4453C25.0764 25.6835 22.7163 26.4485 20.2755 26.6875C22.3536 25.4297 24.9239 23.2422 26.6876 20.1797C27.2511 19.2134 27.7138 18.1918 28.0684 17.1309C29.5273 16.8031 31.0413 16.8078 32.4981 17.1445C32.6345 17.1901 32.7506 17.282 32.8262 17.4043C32.8622 17.4656 32.8856 17.5334 32.895 17.6039C32.9044 17.6743 32.8996 17.7459 32.8809 17.8145Z" fill="#3F3232"/>
</svg>
