<svg width="26" height="26" viewBox="0 0 26 26" fill="none" xmlns="http://www.w3.org/2000/svg">
<path d="M2.16882 13.0022C2.16943 15.5819 3.09017 18.0769 4.76553 20.0386C6.4409 22.0003 8.76103 23.3001 11.3089 23.7044V16.133H8.56049V13.0022H11.3122V10.6188C11.2514 10.061 11.3142 9.49664 11.4961 8.96583C11.678 8.43502 11.9746 7.95078 12.3648 7.54749C12.7549 7.14421 13.2291 6.83178 13.7536 6.63239C14.2781 6.43301 14.84 6.35155 15.3996 6.39382C16.2121 6.40682 17.0246 6.4794 17.8262 6.61049V9.2744H16.4569C16.2242 9.24392 15.9876 9.26613 15.7646 9.33938C15.5416 9.41264 15.3379 9.53507 15.1686 9.69762C14.9993 9.86018 14.8686 10.0587 14.7864 10.2785C14.7041 10.4984 14.6723 10.7339 14.6932 10.9677V13.0022H17.6952L17.2152 16.1341H14.6932V23.7044C16.7382 23.3812 18.6477 22.4789 20.1957 21.1042C21.7437 19.7294 22.8653 17.9399 23.4279 15.9475C23.9904 13.9551 23.9703 11.8433 23.3699 9.86193C22.7694 7.88061 21.6138 6.11284 20.0399 4.76789C18.466 3.42295 16.5396 2.55716 14.4889 2.27304C12.4382 1.98892 10.349 2.29836 8.46868 3.16473C6.58837 4.0311 4.99569 5.41811 3.87919 7.16155C2.7627 8.905 2.16915 10.9319 2.16882 13.0022Z" fill="#3F3232" fill-opacity="0.78"/>
</svg>
